<?xml version="1.0" encoding="UTF-8" standalone="no"?>
<!DOCTYPE svg PUBLIC "-//W3C//DTD SVG 1.1//EN" "http://www.w3.org/Graphics/SVG/1.1/DTD/svg11.dtd">
<svg width="100%" height="100%" viewBox="0 0 834 834" version="1.1" xmlns="http://www.w3.org/2000/svg" xmlns:xlink="http://www.w3.org/1999/xlink" xml:space="preserve" xmlns:serif="http://www.serif.com/" style="fill-rule:evenodd;clip-rule:evenodd;stroke-linejoin:round;stroke-miterlimit:2;">
    <g transform="matrix(1.21662,0,0,0.105676,-11.8912,368.982)">
        <path d="M651.939,451.235C651.939,273.383 639.398,128.99 623.949,128.99L80.554,128.99C65.105,128.99 52.563,273.383 52.563,451.235C52.563,629.087 65.105,773.481 80.554,773.481L623.949,773.481C639.398,773.481 651.939,629.087 651.939,451.235Z" style="fill:rgb(244,227,215);"/>
    </g>
    <g transform="matrix(1.21662,0,0,0.105676,-11.8912,172.135)">
        <path d="M651.939,451.235C651.939,273.383 639.398,128.99 623.949,128.99L80.554,128.99C65.105,128.99 52.563,273.383 52.563,451.235C52.563,629.087 65.105,773.481 80.554,773.481L623.949,773.481C639.398,773.481 651.939,629.087 651.939,451.235Z" style="fill:rgb(244,227,215);"/>
    </g>
    <g transform="matrix(1.21662,0,0,0.105676,-11.8912,565.829)">
        <path d="M651.939,451.235C651.939,273.383 639.398,128.99 623.949,128.99L80.554,128.99C65.105,128.99 52.563,273.383 52.563,451.235C52.563,629.087 65.105,773.481 80.554,773.481L623.949,773.481C639.398,773.481 651.939,629.087 651.939,451.235Z" style="fill:rgb(244,227,215);"/>
    </g>
</svg>
