<?xml version="1.0" encoding="UTF-8" standalone="no"?>
<!DOCTYPE svg PUBLIC "-//W3C//DTD SVG 1.1//EN" "http://www.w3.org/Graphics/SVG/1.1/DTD/svg11.dtd">
<svg width="100%" height="100%" viewBox="0 0 834 834" version="1.1" xmlns="http://www.w3.org/2000/svg" xmlns:xlink="http://www.w3.org/1999/xlink" xml:space="preserve" xmlns:serif="http://www.serif.com/" style="fill-rule:evenodd;clip-rule:evenodd;stroke-linejoin:round;stroke-miterlimit:2;">
    <g transform="matrix(1.21662,0,0,0.105676,-11.8912,368.982)">
        <path d="M651.939,290.113C651.939,201.187 645.669,128.99 637.944,128.99L66.559,128.99C58.834,128.99 52.563,201.187 52.563,290.113L52.563,612.358C52.563,701.284 58.834,773.481 66.559,773.481L637.944,773.481C645.669,773.481 651.939,701.284 651.939,612.358L651.939,290.113Z" style="fill:white;"/>
    </g>
    <g transform="matrix(1.21662,0,0,0.105676,-11.8912,172.135)">
        <path d="M651.939,290.113C651.939,201.187 645.669,128.99 637.944,128.99L66.559,128.99C58.834,128.99 52.563,201.187 52.563,290.113L52.563,612.358C52.563,701.284 58.834,773.481 66.559,773.481L637.944,773.481C645.669,773.481 651.939,701.284 651.939,612.358L651.939,290.113Z" style="fill:white;"/>
    </g>
    <g transform="matrix(1.21662,0,0,0.105676,-11.8912,565.829)">
        <path d="M651.939,290.113C651.939,201.187 645.669,128.99 637.944,128.99L66.559,128.99C58.834,128.99 52.563,201.187 52.563,290.113L52.563,612.358C52.563,701.284 58.834,773.481 66.559,773.481L637.944,773.481C645.669,773.481 651.939,701.284 651.939,612.358L651.939,290.113Z" style="fill:white;"/>
    </g>
</svg>
