<?xml version="1.0" encoding="utf-8"?>
<!-- Generator: Adobe Illustrator 27.7.0, SVG Export Plug-In . SVG Version: 6.00 Build 0)  -->
<svg version="1.1"
	 id="svg8" xmlns:rdf="http://www.w3.org/1999/02/22-rdf-syntax-ns#" xmlns:dc="http://purl.org/dc/elements/1.1/" xmlns:cc="http://creativecommons.org/ns#" xmlns:sodipodi="http://sodipodi.sourceforge.net/DTD/sodipodi-0.dtd" xmlns:svg="http://www.w3.org/2000/svg" xmlns:inkscape="http://www.inkscape.org/namespaces/inkscape" inkscape:version="1.0 (4035a4fb49, 2020-05-01)" sodipodi:docname="instagram logo.svg"
	 xmlns="http://www.w3.org/2000/svg" xmlns:xlink="http://www.w3.org/1999/xlink" x="0px" y="0px" viewBox="0 0 100 100"
	 style="enable-background:new 0 0 100 100;" xml:space="preserve">
<style type="text/css">
	.st0{fill:none;}
	.st1{fill:#635D5A;}
	.st2{fill:#737777;}
	.st3{fill:#929190;}
	.st4{fill:url(#Elephant);}
</style>
<pattern  y="100" width="72" height="72" patternUnits="userSpaceOnUse" id="Elephant" viewBox="55.7 -151.2 72 72" style="overflow:visible;">
	<g>
		<rect x="55.7" y="-151.2" class="st0" width="72" height="72"/>
		<g>
			<g>
				<g>
					<path class="st1" d="M130.2-79.6l-2.6,3.9l-3.9,4.1c2.8-0.2,4.6-2.6,4.6-2.6l3.7-5.4L130.2-79.6z"/>
				</g>
			</g>
		</g>
		<g>
			<g>
				<g>
					<path class="st2" d="M122.4-41.2l-12-3.2l-3.5,7.1l-7.3,3.5l-8.6-2L84.6-39l-4.4-3.9l-3.5-15.8l8.7-8.6L89-78.8l-12.1-18
						l6.5,1.5L101.8-76c0,0-3.8,11.5-3.8,13.6c0,2.1,2.2,2.8,4.5,4.1c0.5,0.3,4.2-4.8,5-6c2.2-3.5,2.6-6.2,5.5-6.8
						c1.3-0.3,7.2,1.2,7,5c0,0,0,8.3,2,10.8c0.9,1.2,1.9,2.5,2.5,4c2,4.5,10,10.5,10,10.5l0.5,6L122.4-41.2z"/>
					<polygon class="st2" points="132.9,-91.8 111.9,-86.8 120.9,-76.8 131.4,-73.3 					"/>
					<polygon class="st2" points="79.4,-87.4 69.9,-79.3 72.9,-69.3 81.4,-74.3 86.4,-78.3 95.4,-64.3 95.4,-75.8 91.2,-84.3 
						85.4,-93.3 					"/>
					<path class="st1" d="M120.4-83.5l-2.5,5.2l-1.7,1.5l-1.9,2.2c0,0-1.1,0.8-1.6,9.9c-0.4,9.1-10.1,18.8-10.1,18.8l-10.4,8.6
						c0,0-10.5,15.8-10.9,16.6c-0.4,0.9,2.5-9.7,2.5-9.7l3.5-4.7l12.3-10.1c0,0,3.4-3,6.3-9.5c2.8-6.5,3.9-8.2,4.1-10.4
						c0.2-2.2-3.4-3,5.8-14L120.4-83.5z"/>
					<path class="st1" d="M128.8-82.3l-1.6,3.1l-0.8,2.8l-1.2,2.1l-1.4,1.8l-1.6,6.9c0,0,1.7,7.1,0,9.9c-1.7,2.8-3.4,7.5-4.3,9.7
						c-0.9,2.2-4.3,11.2-5.8,12.3c-1.5,1.1-13.6,6.3-18.5,11C88.6-17.9,76.5-1.7,72,0c3.2-3.9,17.9-21.8,19.8-23.3
						c1.9-1.5,11.6-10.8,16.6-12.5c5-1.7,5.2-6.9,7.5-11.2c2.4-4.3,5.8-13.4,5.8-18.3c0-5,1.7-10.5,1.7-10.5L128.8-82.3z"/>
					<path class="st1" d="M108.5-81.5l-1.3,7l-1.7,3.9l-1.9,3.9c0,0-3.4,2.4-4,3.2c-0.6,0.9-4.6,5.3-5.5,6c-0.9,0.6-6,3.4-6,3.4
						c3.5-2.2,7.1-7.1,7.1-7.1s1.5-5,4.1-6.3c2.6-1.3,5.6-6,5.6-6.9c0-0.9,0.3-6.1,0.3-6.1L108.5-81.5z"/>
					<path class="st1" d="M57.7-68.2c0.2-0.7-0.3-1.2-0.1-1.9c0.2-0.6,1-0.8,1.2-1.3c0.3-0.9,0.1-2.2,0.1-2c0.2-1.2,0.6-2.6,0.9-3.2
						c0.3-0.7,1.2-2.2,1.2-2.2l2.7-1.8l-1.8,3.5c0,0-1,5.2-1,5.7c0,0.5,0.2,8.4,0.2,8.4l1.5,6.9l-0.6,5l2.6,3.1c0,0,1.7,5.8,1.7,6.3
						c0,0.5,2.7,4,2.7,4l3.8,4.5l2.3,3.3c0,0,0.3,2.7,0.7,5.3c0.3,2.7,1.2,3.8,2.3,6.2c1.2,2.3,6,6.5,6,6.5l1.5,4L85-1
						c-1-2.2-1-7.8-1-7.8s-2.2-4.2-3.2-4.8c-1-0.7-3-1.8-3.5-3.2c-0.5-1.3-2.2-6.5-2.2-6.5l-1-6.3c0,0-1.3-3.4-3.9-4.5
						c-2.5-1.2-3.2-2-4-4.5c-0.8-2.5-2.5-5.6-2.5-5.6l-2.6-6.9l0.4-3.9c0,0-2.5-8.5-2-11.5c0.5-3,0.7-7,0.7-7s-0.3,1.6-0.9,3.3
						c-0.2,0.6-0.4,1.3-0.7,1.8c-1,2.1-2.4,3.6-2.6,4C56-64.4,57.1-66.2,57.7-68.2z"/>
					<path class="st1" d="M71.6-91.8c0,0,0.6,4.3,0.6,6.3c0,2,4.3,6.2,3.7,9.7c-0.7,3.5-1,2.9-0.8,4.2c0.2,1.3,0.7,3.7,0,4.5
						c-1.2-3.7-0.7-9-0.7-9s-3.8-7-3.6-9.5L71.6-91.8z"/>
					<path class="st1" d="M58.2-79.6l-2.6,3.9l-3.9,4.1c2.8-0.2,4.6-2.6,4.6-2.6l3.7-5.4L58.2-79.6z"/>
					<path class="st1" d="M92.7-84.8c0,0-1.2,0.7-1.2,2.7S89.2-77,89.2-77s0.3,2.2,0.5,4c0.2,1.8,0.2,5.7,0.2,5.7
						c-1.7-1-1.2-6.5-1.2-6.5s-0.5-4.2,0.3-5c0.8-0.8,1.7-3.5,2.2-5.5L92.7-84.8z"/>
					<path class="st1" d="M96.7-85.5c0,0-0.3,2.5-0.5,3.3C96-81.3,96-77.8,96-77.8l-0.2,4.2l-1.3,3.2L92-68l-0.3-0.5
						c0.2-1,2.5-4.7,2.9-6.2c0.5-2.1,0.8-4.6,0.8-4.6s0.2-5.3,0.2-6.2H96.7z"/>
					<path class="st1" d="M101.8-81.7c0,0-1,3.2-0.8,4.5c0.2,1.3-0.2,8.3,1,9.3c-1.7-0.8-2.2-5.4-2.2-6.9s1.2-5.8,1.2-7.3
						L101.8-81.7z"/>
					<path class="st1" d="M85.6-80l-0.1,12.6c-1-2.2-1.5-13.5-1.5-13.5L85.6-80z"/>
					<path class="st1" d="M98.1-96.3l-2.7,1.6c0,0-1.2,1.4-1.5,1.8c-0.3,0.4-0.8,1.5-1,2c-0.2,0.5-2.6,3.9-2.6,3.9s-2.6,1.7-3.5,2.4
						c-0.9,0.7-2.7,2.1-2.7,2.1l-1.6,2.4l-1.7,3.2l4.5-0.4l2.9,0.1l-6.6,1.3l-1.6,0.4l-2,0.9L75-72.9l-1.7,1.8l0.1,6.1l3.7,1l-2,0.2
						l-2-0.3l-1.8-5.8l-4.9-2.5l0-0.9l-0.8-1.3l-0.2-1.2l-0.2-3l2.4,5.8c0,0,3.7,1.1,4.1,0.8c0.3-0.4,7.8-4.5,7.8-4.5l2.3-3.8
						l2.4-3.5l0.8-0.4l2.4-2.3l1.6-0.5l1-1.3l1.2-3.4l2.4-2.1C93.7-94,97-97.8,98.1-96.3z"/>
					<path class="st1" d="M130.2-79.6l-2.6,3.9l-3.9,4.1c2.8-0.2,4.6-2.6,4.6-2.6l3.7-5.4L130.2-79.6z"/>
				</g>
			</g>
			<polygon class="st1" points="79.4,-87.4 76.4,-84.6 75.8,-82 73.4,-79.4 71.5,-78.3 69.4,-77.8 66.2,-76.2 64.5,-75.8 
				63.5,-75.4 62.6,-72.2 61.2,-70.8 59.7,-67.3 60.5,-66.2 60.3,-67.4 61.5,-69.5 63.3,-71.2 66,-74.3 68.2,-76.2 71.2,-76.9 
				73.3,-78.5 76.2,-81.1 77.7,-84.7 			"/>
			<path class="st1" d="M71.7-72.3l2.5-2.4v-2c0,0,0.8-1,1.5-1.3s2.5-2.3,2.5-2.3l1.8-2.3l-0.8,2.3L77-78l-1.8,1.3v2.8L71.7-72.3z"
				/>
		</g>
		<g>
			<g>
				<g>
					<path class="st2" d="M50.4-41.2l-12-3.2l-3.5,7.1l-7.3,3.5l-8.6-2L12.6-39l-4.4-3.9L4.8-58.7l8.7-8.6L17-78.8l-12.1-18l6.5,1.5
						L29.8-76c0,0-3.8,11.5-3.8,13.6c0,2.1,2.2,2.8,4.5,4.1c0.5,0.3,4.3-4.8,5-6c2.2-3.5,2.6-6.2,5.5-6.8c1.3-0.3,7.2,1.2,7,5
						c0,0,0,8.3,2,10.8c0.9,1.2,1.9,2.5,2.5,4c2,4.5,10,10.5,10,10.5l0.5,6L50.4-41.2z"/>
					<polygon class="st2" points="60.9,-91.8 39.9,-86.8 48.9,-76.8 59.4,-73.3 					"/>
					<path class="st1" d="M56.8-82.3l-1.6,3.1l-0.8,2.8l-1.2,2.1l-1.4,1.8l-1.6,6.9c0,0,1.7,7.1,0,9.9c-1.7,2.8-3.4,7.5-4.3,9.7
						c-0.9,2.2-4.3,11.2-5.8,12.3c-1.5,1.1-13.6,6.3-18.5,11C16.6-17.9,4.5-1.7,0,0c3.2-3.9,17.9-21.8,19.8-23.3
						c1.9-1.5,11.6-10.8,16.6-12.5c5-1.7,5.2-6.9,7.5-11.2c2.4-4.3,5.8-13.4,5.8-18.3c0-5,1.7-10.5,1.7-10.5L56.8-82.3z"/>
					<path class="st1" d="M58.2-79.6l-2.6,3.9l-3.9,4.1c2.8-0.2,4.6-2.6,4.6-2.6l3.7-5.4L58.2-79.6z"/>
				</g>
			</g>
		</g>
		<g>
			<g>
				<g>
					<path class="st2" d="M124.4-123.3c2,4.5,10,10.5,10,10.5l0.5,6l-12.5-6.5L124.4-123.3z"/>
					<polygon class="st2" points="125.1,-78.5 132.6,-72.5 145.4,-82.8 140.4,-92.3 132.9,-91.8 124.9,-98.8 					"/>
					<path class="st1" d="M125.5-97.5c1.8-1.1,3.4-2.2,3.6-2.5c0.5-0.8,7.2-9.5,7.2-9.5l6.8-7.5l5.5-5.5l9.5-8.5l4.5-0.5l3-0.2
						l4.2-2.6l-5.2,1.1l-7.3-0.8l-3.2,5.8l-1.5,1.1l-9.8,7.4c0,0-1,1.1-2.3,2.5c-1.8,2-4,4.5-4.5,5c-0.8,0.8-6.8,8.5-10.2,11.5
						L125.5-97.5z"/>
					<path class="st1" d="M151.4-126l-0.7,4.4l0.2,2.5l-0.1,1l-0.5,3.5l-3.1,4.4l-2.5,6.4l-3.3,7.7l-4.2,6.9l-4.2,4.6l-2.7,5.2
						l-2.6,3.9l-3.9,4.1c2.8-0.2,4.6-2.6,4.6-2.6l3.7-5.4l4.9-4.6l2.2-6.2l3.2-5.9l3-5.6l3.5-5.9l2.2-5.2l2-6.4l1.2-6.5l1.4-3.2
						L151.4-126z"/>
					<path class="st1" d="M124.9-93.2c1.2-0.2,2.4-0.7,3.1-2.2c1.5-3,5-6,5-6s10.2-3.8,13-1.8l-4.2,0.8c0,0-2.8,0.2-4.5,2
						s-3.8,4-5.5,5s-6,3.5-6.5,4.5L124.9-93.2z"/>
					<path class="st1" d="M171.9-138.8c0,0-2.8-0.5-5.8-1.2s-2.2-2-6-1.2c-3.8,0.8-7.3,1-8,1.8s-6.2,3.2-8.5,3.2
						c-1.3,0-2.5,1.5-4.7,3.1c-0.5,0.4-1.5,0.9-2.7,1.5c-2.6,1.3-11.3,3.9-12.1,4.8c0.7-0.2,7.2-1,8.3-1.5c2.9-1.2,6.4-3.6,8.2-4.5
						c2-1,4-1.6,5.7-1.2c3.8,1,8.5-6.8,13.8-5.2C165.4-137.8,169.7-138,171.9-138.8z"/>
					<path class="st1" d="M121.3-140.6l5.1,1.4c0.1,0.2,1.5,1.2,2.1,3.1c0.4,1.5,1.2,2.4,1.6,3.9c0.1,0.5,0.9,0.7,1,1.2
						c0.5,1.7,0.1,3.8,0.1,3.8l2.3,9.5c0,0,0.3,1.2,0.6,2.6c0.3,1.6,0.6,3.4,0.4,4.4c-0.5,1.8-0.5,4.8,0.3,6.9c0.8,2,4,6.2,4,6.2
						l4.7,5.8c0,0,0.6,4.3,0.6,6.3s4.3,6.2,3.7,9.7c-0.7,3.5-1,2.9-0.8,4.2c0.2,1.3,0.7,3.7,0,4.5c-1.2-3.7-0.7-9-0.7-9
						s-3.8-7-3.6-9.5c0.2-2.5,0.3-4.8-1.5-6.5c-1.8-1.7-4.5-7.7-6-9c-1.5-1.3-2-3.3-2-7c0-3.7,0.5-4,0-5.8c-0.5-1.8-0.1-5.3-1.7-8.2
						c-0.7-1.2-1.5-4.4-2-6.5c-0.1-0.6-0.3-2-0.4-2.4c-0.1-0.6-1.1-2.5-2.3-4.6c-0.5-0.9-2-1.9-2-2.4L121.3-140.6z"/>
					<path class="st1" d="M130.2-151.6l-2.6,3.9l-3.9,4.1c2.8-0.2,4.6-2.6,4.6-2.6l3.7-5.4L130.2-151.6z"/>
					<path class="st1" d="M115.7-122.3l4.8,1.5l4.8,1.3l7.2,0.3l3.3-1.7l2.8-1.3c0,0,1.8-2,3-3c1.2-1,2.8-2.7,2.8-2.7l1.7,0.2
						l-1-1.2h-1.7l-1.8,2L140-125c0,0-2,1.2-2.3,1.7c-0.3,0.5-2.5,1.7-2.5,1.7l-3.8,2l-4.3-0.7l-3.5-1l3.2-0.7l3.7-0.5l3.8-1.5
						l2.3-2l3.2-3.5l-1.7,1l-3.7,2.5l-3.7,1.8l-4.5,1.2l-3.2,0.7l-3.7-0.2l-3-0.8l-2.5-1.2L115.7-122.3z"/>
					<path class="st1" d="M123.2-112.5l2.8,1.2l0.8-0.7l3.7-1l3.3-3.2l4-1.2l-2.5-0.7l-3,1.5L130-114l-3.3,0.5
						C126.7-113.5,124.3-111.8,123.2-112.5z"/>
				</g>
				<polygon class="st1" points="119.7,-81 125.8,-81.8 128,-84.7 131.2,-87.8 133.2,-89.2 133.7,-92.5 137.5,-95.2 139.4,-97.2 
					136.5,-96.2 132.8,-93.8 130.8,-89.8 129.2,-93.5 129.5,-89.5 126.5,-86.2 124.9,-83 				"/>
				<path class="st1" d="M125.2-134.4c0,0,3.8,0.6,4.4,0.5c0.7-0.1,3.1-0.8,3.1-0.8l3.3-2.8l2.3-3l5.6-2.6l-2.8,0l-3,1.1l-3.6,2.4
					l-1.4,2.6l-2.2,0.8L125.2-134.4z"/>
			</g>
		</g>
		<g>
			<g>
				<g>
					<rect x="55.7" y="-151.2" class="st3" width="72" height="72"/>
					<path class="st2" d="M122.4-113.2l-12-3.2l-3.5,7.1l-7.3,3.5l-8.6-2l-6.3-3.1l-4.4-3.9l-3.5-15.8l8.7-8.6l3.5-11.5l-12.1-18
						l6.5,1.5l18.4,19.3c0,0-3.8,11.5-3.8,13.6c0,2.1,2.2,2.8,4.5,4.1c0.5,0.3,4.2-4.8,5-6c2.2-3.5,2.6-6.2,5.5-6.8
						c1.3-0.3,7.2,1.2,7,5c0,0,0,8.3,2,10.8c0.9,1.2,1.9,2.5,2.5,4c2,4.5,10,10.5,10,10.5l0.5,6L122.4-113.2z"/>
					<path class="st2" d="M52.4-123.3c2,4.5,10,10.5,10,10.5l0.5,6l-12.5-6.5L52.4-123.3z"/>
					<polygon class="st2" points="132.9,-91.8 124.9,-98.8 118.5,-105.3 112.1,-105.6 102.7,-103.5 98.4,-97.8 101.4,-88.8 
						111.9,-86.8 120.9,-76.8 131.4,-73.3 					"/>
					<polygon class="st2" points="132.9,-163.8 111.9,-158.8 120.9,-148.8 131.4,-145.3 					"/>
					<polygon class="st2" points="53.1,-78.5 60.6,-72.5 73.4,-82.8 68.4,-92.3 60.9,-91.8 52.9,-98.8 					"/>
					<path class="st2" d="M91.6-71.4l3-3.5l0.6-4l-4.1-5.4l4.8-5.5L94.4-98l-5.5-7.8l-9-2.5l-8-6l-1-12.5l-5.5,18.5
						c0,0,2.5,9.5,5,11c2.5,1.5,9,9.9,9,9.9l-9.5,8.1l3,10l8.5-5l5-4L91.6-71.4z"/>
					<polygon class="st2" points="79.4,-159.4 69.9,-151.3 72.9,-141.3 81.4,-146.3 86.4,-150.3 95.4,-136.3 95.4,-147.8 
						91.2,-156.3 85.4,-165.3 					"/>
					<path class="st1" d="M120.4-155.5l-2.5,5.2l-1.7,1.5l-1.9,2.2c0,0-1.1,0.8-1.6,9.9c-0.4,9.1-10.1,18.8-10.1,18.8l-10.4,8.6
						c0,0-10.5,15.8-10.9,16.6c-0.4,0.9,2.5-9.7,2.5-9.7l3.5-4.7l12.3-10.1c0,0,3.4-3,6.3-9.5c2.8-6.5,3.9-8.2,4.1-10.4
						c0.2-2.2-3.4-3,5.8-14L120.4-155.5z"/>
					<path class="st1" d="M128.8-154.3l-1.6,3.1l-0.8,2.8l-1.2,2.1l-1.4,1.8l-1.6,6.9c0,0,1.7,7.1,0,9.9c-1.7,2.8-3.4,7.5-4.3,9.7
						c-0.9,2.2-4.3,11.2-5.8,12.3c-1.5,1.1-13.6,6.3-18.5,11c-5,4.7-17,20.9-21.5,22.6c3.2-3.9,17.9-21.8,19.8-23.3
						c1.9-1.5,11.6-10.8,16.6-12.5c5-1.7,5.2-6.9,7.5-11.2c2.4-4.3,5.8-13.4,5.8-18.3c0-5,1.7-10.5,1.7-10.5L128.8-154.3z"/>
					<path class="st1" d="M121.8-65.5c0-5,1.7-10.5,1.7-10.5l5.3-6.5l-1.6,3.1l-0.8,2.8l-1.2,2.1l-1.4,1.8l-1.6,6.9L121.8-65.5z"/>
					<path class="st1" d="M108.5-153.5l-1.3,7l-1.7,3.9l-1.9,3.9c0,0-3.4,2.4-4,3.2c-0.6,0.9-4.6,5.3-5.5,6c-0.9,0.6-6,3.4-6,3.4
						c3.5-2.2,7.1-7.1,7.1-7.1s1.5-5,4.1-6.3c2.6-1.3,5.6-6,5.6-6.9c0-0.9,0.3-6.1,0.3-6.1L108.5-153.5z"/>
					<path class="st1" d="M53.5-97.5c1.8-1.1,3.4-2.2,3.6-2.5c0.5-0.8,7.2-9.5,7.2-9.5l6.8-7.5l5.5-5.5l9.5-8.5l4.5-0.5l3-0.2
						l4.2-2.6l-5.2,1.1l-7.3-0.8l-3.2,5.8l-1.5,1.1l-9.8,7.4c0,0-1,1.1-2.3,2.5c-1.8,2-4,4.5-4.5,5c-0.7,0.8-6.7,8.5-10.2,11.5
						L53.5-97.5z"/>
					<path class="st1" d="M79.4-126l-0.7,4.4l0.2,2.5l-0.1,1l-0.5,3.5l-3.1,4.4l-2.5,6.4l-3.3,7.7l-4.2,6.9l-4.2,4.6l-2.7,5.2
						l-2.6,3.9l-3.9,4.1c2.8-0.2,4.6-2.6,4.6-2.6l3.7-5.4l4.9-4.6l2.2-6.2l3.2-5.9l3-5.6l3.5-5.9l2.2-5.2l2-6.4l1.2-6.5l1.4-3.2
						L79.4-126z"/>
					<path class="st1" d="M52.9-93.2c1.2-0.2,2.4-0.7,3.1-2.2c1.5-3,5-6,5-6s10.2-3.8,13-1.8l-4.2,0.8c0,0-2.8,0.2-4.5,2
						c-1.7,1.8-3.7,4-5.5,5c-1.7,1-6,3.5-6.5,4.5L52.9-93.2z"/>
					<path class="st1" d="M99.9-138.8c0,0-2.8-0.5-5.8-1.2s-2.2-2-6-1.2c-3.8,0.8-7.3,1-8,1.8s-6.2,3.2-8.5,3.2
						c-1.3,0-2.5,1.5-4.7,3.1c-0.5,0.4-1.5,0.9-2.7,1.5c-2.6,1.3-11.3,3.9-12.1,4.8c0.7-0.2,7.2-1,8.3-1.5c2.9-1.2,6.4-3.6,8.2-4.5
						c2-1,4-1.6,5.7-1.2c3.8,1,8.5-6.8,13.8-5.2C93.4-137.8,97.7-138,99.9-138.8z"/>
					<path class="st1" d="M87.7-125.5l0.7-3.8l-0.8-6.3l2.2-2.6l2.8-1l0.2,3.2l-1.3,8.3l-0.3-4.8l0.2-3.2l-0.2-1.8l-2.7,2.5l0.6,5
						l0.1,3.2l1.8,4.3L93-120l2.3,2l2.1,1.8l1.8,5.8l2.2,2.8l1.2,4.2l5,9l-0.9,7.5l-0.5,2c-0.8-9.2-1.1-11.5-1.1-11.5
						s-0.5-1.7-1.3-2.7c-0.8-1-1-2.8-2.5-3.5c-1.5-0.7-2-1.7-2.5-3.2s-1.5-5.2-1.5-5.2s-0.7-3.2-1.5-4.2c-0.8-1-1.8-3.2-1.8-3.2
						s-0.2,0.3-2.5-2"/>
					<path class="st1" d="M81.8-135.7c0.2-1.2,0.2-2.8,0.2-2.8l-2.2,1.5l-2,1.8l1.2,2.7l0.8,2.7l1.2,1l2.7,3.3l2.1,4.7l0.8,4.3
						c0,0,2.3,2.8,2.3,3.8s2.8,5,2.8,5l1.7,5.5c0,0,1.2,2,3.2,3.5s2.5,3.8,4.3,6c1.8,2.2,0.8,11,0.8,11s-1,3.2-0.8,4.5
						c0.2,1.3-0.5,8,0.7,9c-1.7-0.8-1.8-5.2-1.8-6.7s1.2-5.8,1.2-7.3s0.3-4.3,0.3-4.3l-0.7-4l-2.2-3l-2.8-4.3c0,0-4.2-5.3-4.2-6.2
						s-1.5-5.5-1.5-5.5l-1.4-1.9l-0.9-1.2l-1.4-1.8l-1-4.8c0,0-1.7-5.8-2.7-6l-2.5-3l-1.7-2.7l-1.3-2.7l-1.2-1.2l-2.8-0.7l1.2,1.3
						l1.6,1.8l-0.3,2l2,1.3l-2.8-0.3v-2.5l-3-3.3l-1.3,0.2l2.3,4l0.2,1.5l1.2,1.7l1,3l2.2,4.1l1.6,3.4l2.8,1.8l2.3,1.2
						c0,0,0.5,1.3,1,1.3l2.2,1.2l1.3,3.3v4.2l1.2,4.7c0,0,3.7,3.8,4.3,4.5c0.7,0.7,2.2,2.7,2.2,3.8c0,1.2,0.3,5.7,0.3,5.7
						s-0.3,2.5-0.5,3.3C96-81.3,96-77.8,96-77.8L94.5-74c0.5-2.3,0.8-5.3,0.8-5.3s0.2-5.3,0.2-6.2c0-0.4-0.1-2.3-0.3-4
						c-0.1-1.5-0.3-2.9-0.6-3.2c-0.5-0.7-3-4.2-4.2-5c-1.2-0.8-3-6.7-3-8.2s-1-5-2.3-5.3c-1.3-0.3-2-3.1-6.9-3.5l-1.2-4.7l-1.6-2.5
						L73-128l-1.3-2l-1-2.2l-1.3-1l-1.7,0.2v1.3l-0.2,3.3l-0.3,1.5l3.4,4.7l2.7,3.7l-0.2,1.8l1.5,3l2.5,0.7l2.7,2.5l1.8,2.5l2.2,4.7
						l1.3,3.5c0,0,2,2,2,4.3s2,1.5,2.8,2.7c0.8,1.2,3.3,2,3.3,2l0.3,2.5l-1,3.5c0,0-1.2,0.7-1.2,2.7S89.2-77,89.2-77s0.3,2.2,0.5,4
						c0.2,1.8,0.2,5.7,0.2,5.7c-1.7-1-1.2-6.5-1.2-6.5s-0.5-4.2,0.3-5c0.8-0.8,1.7-3.5,2.2-5.5s2.8-3.2,0.3-5
						c-2.5-1.8-6.2-5.7-6.5-8c-0.3-2.3-3-8.2-4.3-9.7s-1.8-4-3.3-4.3c-1.5-0.3-2.6-1.2-2.6-1.2l-2.5-3.2l-1.1-2.9L69-122l-2.8-2.8
						l0.2-4.5v-1.8l0.5-1.5l1.4-1.6l-1.9-6.9l3,5.8l5.8-1.7l5.5-2.8h5.7l-1.2,3.5l1.1,7.2l0.2,3.8L88-122c0,0,1.7,3.3,2.7,4
						s2.2,1,2.3,3c0.2,2,1.5,6.7,2,7s2,3,2,3c-1.7-0.2-2.5-1.2-2.7-1.8s-1.7-4.3-1.8-5.5c-0.2-1.2-1.3-3.8-2.5-4.5
						c-1.2-0.7-2.5-3.2-2.8-4c-0.3-0.8,0-3.5-1.3-3.3l-0.3-4.2l-1.2-4.8l0.2-2.8l0.7-3.5l-1.8,0.3l-0.5,1.3v4.5L81.8-135.7z"/>
					<path class="st1" d="M107.9-114.8c0,0-2.6-3.8-2.8-4.2c-0.2-0.5-2.8-2.2-2.8-2.2s-1.6-2.2-2.2-2.8c-0.7-0.5-3.2-2-3.8-2.2
						c-0.7-0.2-3.2-2.5-3.2-2.5c0-1.3,4-5.2,4.8-5.7c0.8-0.5,1.8,0.1,2.9,0.2c1.2,0.1,3,1.5,4.3,1.8c1.3,0.3,6.3-0.7,8-0.7
						c1.7,0,4.4,2.2,5.8,4.8c1.3,2.5,2.2,6.4,3.6,7.2c1.3,0.8,3.7,4.5,3.5,6.5c-0.5-1.2-2.2-4.5-5.2-5.8c-1.5-0.7-1.5-2.2-2.3-3.3
						c-0.8-1.2-4.2-7-6-7s-4.3,0.5-5.2,0c-0.8-0.5-3.5-1.3-4.3-1.7c-0.8-0.3-2.5-0.8-4.3-1c-1.8-0.2-1.2,0.3-2,1.5
						c0.7,0.3,0.8,0.3,2.2,0.8c1.3,0.5,3.7,1.8,5.8,2c2.2,0.2,4.2,4.2,5,4.5c0.8,0.3,1.5,2.7,2.5,2.7s3.6,1.5,3.8,2.8
						c0.5,4.2,4.2,8.1,5.4,10.7c0.7,1.5,1,6.8,0.8,7.7c-0.2,0.8-1.8,4.3-3.3,6.2c0-0.5,2.2-6.3,2.2-7.8s-2.2-8.5-2.5-9.8
						c-0.3-1.3-3.7-3.7-4-4.3s-1.8-3.3-1.8-3.3l-3.5-3.4l-2.8-3.9l-3.5-1.2l-2.2-0.8c0,0-4.2-1.5-4.7-1.3c-0.5,0.2-1.5,1.3-1.5,1.3
						c0,1.7,3,1.5,4.8,2.3c1.8,0.8,2.2,3.6,4.1,4.6c1.8,1,2.9,3.1,3.4,3.9c0.5,0.8,1.7,2.2,1.9,3.1c0,0,0.8,3.1,0.9,4.9
						c0.2,1.8-0.2,2,0.8,4c1,2,5.8,4.2,5.8,6.5s-1,8.2-1,9.8s3.2,7.3,3.2,8.7s0,0,0,0c-2.7-1.8-1.7-2.2-2.2-3.8
						c-0.5-1.7-2.8-4-1.7-6.3c1.2-2.3,1.3-8.2,0.5-8.8c-0.8-0.7-4.2-4.3-5-5.3C109.3-106.7,107.5-114,107.9-114.8z"/>
					<path class="st1" d="M78.3-80.3l-5.5-5l2-6.3l0.3-3.7l1.9-6l4.5-5.2l2.5-4l3.7-4.8l1.3-3.2l4.2-5.3l2.7-2.5l2.7-3.8l2.8-2.8
						l3.3-2l2.7-3l2.2-2.3l-0.7,2l-2.3,3l-2.5,2l-3.5,3.2l-2.5,2.5l-1.8,4.1l-3.5,3.5l-4.3,5.8l-2.2,2.3l-1.8,4.3l-2.8,2.8l-1.8,5.5
						L77.3-93l-1.9,6.8l3.6,5.4l1.2-0.5l-0.2-2l0.2-5l0.5-3.5l2.7-4.7l5-4.2l4.7-2.7l1-1.5l-1.3,2.8l-2.5,0.8l-3.2,3l-2,1.7l-3,4
						l-0.7,5.3l-0.5,3.7l0.8,1.3C81.7-82.2,80.3-78.5,78.3-80.3z"/>
					<path class="st1" d="M57.7-140.2c0.2-0.7-0.3-1.2-0.1-1.9c0.2-0.6,1-0.8,1.2-1.3c0.3-0.9,0.1-2.2,0.1-2
						c0.2-1.2,0.6-2.6,0.9-3.2c0.3-0.7,1.2-2.2,1.2-2.2l2.7-1.8l-1.8,3.5c0,0-1,5.2-1,5.7c0,0.5,0.2,8.4,0.2,8.4l1.5,6.9l-0.6,5
						l2.6,3.1c0,0,1.7,5.8,1.7,6.3c0,0.5,2.7,4,2.7,4l3.8,4.5l2.3,3.3c0,0,0.3,2.7,0.7,5.3c0.3,2.7,1.2,3.8,2.3,6.2
						c1.2,2.3,6,6.5,6,6.5l1.5,4L85-73c-1-2.2-1-7.8-1-7.8s-2.2-4.2-3.2-4.8c-1-0.7-3-1.8-3.5-3.2c-0.5-1.3-2.2-6.5-2.2-6.5l-1-6.3
						c0,0-1.3-3.4-3.9-4.5c-2.5-1.2-3.2-2-4-4.5c-0.8-2.5-2.5-5.6-2.5-5.6l-2.6-6.9l0.4-3.9c0,0-2.5-8.5-2-11.5c0.5-3,0.7-7,0.7-7
						s-0.3,1.6-0.9,3.3c-0.2,0.6-0.4,1.3-0.7,1.8c-1,2.1-2.4,3.6-2.6,4C56-136.4,57.1-138.2,57.7-140.2z"/>
					<path class="st1" d="M49.3-140.6l5.1,1.4c0.1,0.2,1.5,1.2,2.1,3.1c0.4,1.5,1.2,2.4,1.6,3.9c0.1,0.5,0.9,0.7,1,1.2
						c0.5,1.7,0.1,3.8,0.1,3.8l2.3,9.5c0,0,0.3,1.2,0.6,2.6c0.3,1.6,0.6,3.4,0.4,4.4c-0.5,1.8-0.5,4.8,0.3,6.9c0.8,2,4,6.2,4,6.2
						l4.7,5.8c0,0,0.6,4.3,0.6,6.3s4.3,6.2,3.7,9.7c-0.7,3.5-1,2.9-0.8,4.2c0.2,1.3,0.7,3.7,0,4.5c-1.2-3.7-0.7-9-0.7-9
						s-3.8-7-3.6-9.5c0.2-2.5,0.3-4.8-1.5-6.5s-4.5-7.7-6-9c-1.5-1.3-2-3.3-2-7c0-3.7,0.5-4,0-5.8c-0.5-1.8-0.1-5.3-1.7-8.2
						c-0.7-1.2-1.5-4.4-2-6.5c-0.1-0.6-0.3-2-0.4-2.4c-0.1-0.6-1.1-2.5-2.3-4.6c-0.5-0.9-2-1.9-2-2.4L49.3-140.6z"/>
					<path class="st1" d="M71.6-163.8c0,0,0.6,4.3,0.6,6.3s4.3,6.2,3.7,9.7c-0.7,3.5-1,2.9-0.8,4.2c0.2,1.3,0.7,3.7,0,4.5
						c-1.2-3.7-0.7-9-0.7-9s-3.8-7-3.6-9.5L71.6-163.8z"/>
					<path class="st1" d="M131.1-122.2c-0.8-1.5-2-6.3-2.3-7.9c-0.1-0.6-1.2-3.5-2.3-5.5c-0.5-0.9-2-1.9-2-2.4l-3.6-2.5l5.1,1.4
						c0.1,0.2,1.5,1.2,2.1,3.1c1.1,3.7,2.7,8.9,2.7,8.9L131.1-122.2z"/>
					<path class="st1" d="M58.6-76.2c0.3-0.7,2.5-2.7,2.5-2.7l2.7-1.8l-1.8,3.5L58.6-76.2z"/>
					<path class="st1" d="M101.3-141.5l3,0.8l1.7,1.2c0,0,1.3,0.8,4,1.5c2.7,0.7,3.7,0.7,4.7,1.2s7.8,3.1,8.2,4.1
						c0-1.8-6.2-6.1-7.2-6.2s-4.8,1-6.2,0c-1.3-1-2.5-0.7-4.5-2.5c0.8-0.5,4,0,6,0.3c2,0.3,2.3,0.8,3.8,0.3s3.2-1.3,4.2-1.3
						s2.8-0.2,4,0.5c-0.7-1.7-6.7-1-7.2-0.7s-3.5,0.5-4.7,0c-1.2-0.5-3.5-0.3-4.8-0.8C105-143.7,102.5-142.5,101.3-141.5z"/>
					<path class="st1" d="M129.5-104.3c-1.3,1.4-2.5,2.7-3.5,3.6c-1.8,1.5-3.4,3.2-8,6.2c-4.3,2.9-9.9,7-10.8,7.8
						c-1.8,1.5-11.5,1.2-11.5,1.2l-11,6.2c0,0,9-3.6,10-3.6s10-0.8,10-0.8l7.5-4.8l8.5-6c0,0,8-4.8,8.5-5.5L129.5-104.3z"/>
					<path class="st1" d="M129.3-93.9c-1.8,1.1-3.7,2.4-4,3c-0.5,1-6.5-1.5-9.5-1.8c4-1.5,4.5-0.2,6-0.5s4.7,0.8,6.2-2.2
						c0.3-0.5,0.6-1,0.9-1.5L129.3-93.9z"/>
					<path class="st1" d="M109.9-65.1c0.2-2.1-3.3-3,5.2-13.3c0.2-0.2,0.4-0.5,0.6-0.7l6.2-7.7l-4.1,8.5l-1.7,1.5l-1.9,2.2
						c0,0-1.1,0.8-1.6,9.9L109.9-65.1z"/>
					<path class="st1" d="M99.2-67.4c2.6-1.3,5.6-6,5.6-6.9c0-0.5,0.1-2.8,0.2-4.4c0.1-1,0.1-1.7,0.1-1.7l6.2-16.3l-3.4,18.2l-0.7,4
						l-1.7,3.9L99.2-67.4z"/>
					<path class="st1" d="M58.2-151.6l-2.6,3.9l-3.9,4.1c2.8-0.2,4.6-2.6,4.6-2.6l3.7-5.4L58.2-151.6z"/>
					<path class="st1" d="M92.7-156.8c0,0-1.2,0.7-1.2,2.7s-2.3,5.2-2.3,5.2s0.3,2.2,0.5,4c0.2,1.8,0.2,5.7,0.2,5.7
						c-1.7-1-1.2-6.5-1.2-6.5s-0.5-4.2,0.3-5c0.8-0.8,1.7-3.5,2.2-5.5L92.7-156.8z"/>
					<path class="st1" d="M96.7-157.5c0,0-0.3,2.5-0.5,3.3c-0.2,0.8-0.2,4.3-0.2,4.3l-0.2,4.2l-1.3,3.2L92-140l-0.3-0.5
						c0.2-1,2.5-4.7,2.9-6.2c0.5-2.1,0.8-4.6,0.8-4.6s0.2-5.3,0.2-6.2H96.7z"/>
					<path class="st1" d="M101.8-153.7c0,0-1,3.2-0.8,4.5c0.2,1.3-0.2,8.3,1,9.3c-1.7-0.8-2.2-5.4-2.2-6.9s1.2-5.8,1.2-7.3
						L101.8-153.7z"/>
					<path class="st1" d="M85.6-152l-0.1,12.6c-1-2.2-1.5-13.5-1.5-13.5L85.6-152z"/>
					<path class="st1" d="M107.5-104.7l3,4.7l2,3.5l-0.2,4.2l-0.7,2.7l-0.8,0.7l2.2,2.5l1.5,3.3l1.9,3.9l-0.7,0.1l-3.6-4.1l-1.3-4.6
						l-0.7-1.3l1.5-1.8l-0.4-5.7l-1.9-4.2l-2.8-3.8l-1.3-4.2c0,0-1.2-4-1.3-4.5s-1.5-1.8-1.5-1.8c2.3,0.3,2.2,1.7,2.2,1.7l2,4.5
						L107.5-104.7z"/>
					<polygon class="st1" points="112.9,-125.8 116.2,-129.5 113.8,-124.5 111.4,-117.8 110.4,-116.5 106.7,-115 105.1,-110.7 
						104.4,-112 105.4,-115.5 110.8,-119.7 					"/>
					<path class="st1" d="M109.7-100.2l-5.8,3.6l-1.5,1.3l-1.3,2.7l-0.7,0.9l-1,1.3L97.5-90L96-89.8l2.5,0.3c1,0,2-1,2.7-1.7
						c0.7-0.7,1.7-3.3,2.3-3.8C104.2-95.5,109.7-97.8,109.7-100.2z"/>
					<path class="st1" d="M120.5-109l-0.8,2.3l-1.2,1.3l-1.3,2l-1,1.7l-0.7,0.8l-1,1.2l-1.8,1.5c0.8,0.7,2.2-0.8,2.2-0.8l1-1.2
						l2-2.2l1.5-2.5l1.5-1.7l1.5-3.8l1.2-4.5l1.2-3.7l-1.3,1.8l-1,1.3l-0.8,3.3L120.5-109z"/>
					<path class="st1" d="M69.5-136.1c1.1-0.4,1.9-2.2,1.9-2.2l4.8-3.9c0,0,3.4-1.6,4.5-1.5l0.1,1.2l-0.3,4.3l1.2-4.1l-0.2-1.7
						c0,0,1.7-0.6,2.2-0.9c0.4-0.3,3-1.2,3.4-1.3c0.5-0.1,0.5,1.3,0.5,1.3l1.6,1l-0.9-1.5l-0.1-1l2.1-0.7l2.8-0.7l2.3,1.8
						c0,0,0.1-0.2,2-0.1c1.9,0.1,3.3,0.8,3.3,0.8l0.6-1.2l0.7-1.2c0,0-1.1,1-2.4,0.6c-1.3-0.4-3.3-0.2-3.3-0.2l-2.5-1.3
						c0,0-0.9-0.1-2.4,0.1c-1.5,0.2-3,0.5-3,0.5s-1.3,1-1.8,1.1c-0.5,0.1-1.9,0.6-3.1,0.7c-1.2,0.1-2.8,0.5-3.2,0.8
						c-0.4,0.3-4.3,2.1-4.3,2.1l-3.7,1.9l-2.9,2.1l-3.1,1.4l-1.9,2.9l-1.8,2.8l-5.1,4.2c0,0,3.5-1.2,4.9-2.8c1.2-1.4,2.4-2.8,2.6-3
						L69.5-136.1z"/>
					<path class="st1" d="M132.6-130.1c-3.5,1.3-7.8,2.7-8.4,3.3c0.7-0.2,7.2-1,8.3-1.5L132.6-130.1z"/>
					<path class="st1" d="M131.5-135.7l-6.3,3.5c0,0,4.1-1,5.8-2.2L131.5-135.7z"/>
					<path class="st1" d="M98.1-168.3l-2.7,1.6c0,0-1.2,1.4-1.5,1.8c-0.3,0.4-0.8,1.5-1,2c-0.2,0.5-2.6,3.9-2.6,3.9
						s-2.6,1.7-3.5,2.4c-0.9,0.7-2.7,2.1-2.7,2.1l-1.6,2.4l-1.7,3.2l4.5-0.4l2.9,0.1l-6.6,1.3l-1.6,0.4l-2,0.9l-2.9,1.6l-1.7,1.8
						l0.1,6.1l3.7,1l-2,0.2l-2-0.3l-1.8-5.8l-4.9-2.5l0-0.9l-0.8-1.3l-0.2-1.2l-0.2-3l2.4,5.8c0,0,3.7,1.1,4.1,0.8
						c0.3-0.4,7.8-4.5,7.8-4.5l2.3-3.8l2.4-3.5l0.8-0.4l2.4-2.3l1.6-0.5l1-1.3l1.2-3.4l2.4-2.1C93.7-166,97-169.8,98.1-168.3z"/>
					<path class="st1" d="M43.7-122.3l4.8,1.5l4.8,1.3l7.2,0.3l3.3-1.7l2.8-1.3c0,0,1.8-2,3-3c1.2-1,2.8-2.7,2.8-2.7l1.7,0.2l-1-1.2
						h-1.7l-1.8,2L68-125c0,0-2,1.2-2.3,1.7s-2.5,1.7-2.5,1.7l-3.8,2l-4.3-0.7l-3.5-1l3.2-0.7l3.7-0.5l3.8-1.5l2.3-2l3.2-3.5l-1.7,1
						l-3.7,2.5l-3.7,1.8l-4.5,1.2l-3.2,0.7l-3.7-0.2l-3-0.8l-2.5-1.2L43.7-122.3z"/>
					<path class="st1" d="M51.2-112.5l2.8,1.2l0.8-0.7l3.7-1l3.3-3.2l4-1.2l-2.5-0.7l-3,1.5L58-114l-3.3,0.5
						C54.7-113.5,52.3-111.8,51.2-112.5z"/>
					<polygon class="st1" points="134.3,-126 130.7,-124.2 126.2,-123 123,-122.3 119.3,-122.5 116.3,-123.3 113.9,-125.2 
						115.7,-122.3 120.5,-120.8 125.3,-119.5 132.5,-119.2 135.8,-120.8 135.2,-121.7 131.3,-119.7 127,-120.3 123.5,-121.3 
						126.7,-122 130.3,-122.5 134.2,-124 					"/>
					<path class="st1" d="M130-114l-3.3,0.5c0,0-2.3,1.7-3.5,1l2.8,1.2l0.8-0.7l3.7-1L130-114z"/>
					<polygon class="st1" points="62.8,-79.7 66.5,-84.3 68.9,-88.5 70.9,-91.5 72.9,-95.8 75.2,-99.2 73.4,-95 72.9,-91.8 
						71.4,-90.8 70.2,-89.3 68.7,-83.3 66.9,-82.4 65,-80.7 					"/>
					<path class="st1" d="M130.2-151.6l-2.6,3.9l-3.9,4.1c2.8-0.2,4.6-2.6,4.6-2.6l3.7-5.4L130.2-151.6z"/>
				</g>
				<polygon class="st1" points="118.7,-93.5 118.7,-90.8 120.9,-88 122.7,-86.8 124.2,-86.5 125.2,-85.2 126.7,-83.8 124.7,-84 
					123.2,-85.8 120.9,-87 118.7,-87.8 117.9,-89.2 				"/>
				<polygon class="st1" points="124.4,-97.8 125.4,-101.5 125.4,-105 124.9,-108.8 122.4,-113.2 124.4,-112.5 125.4,-111.2 
					125.7,-109 126.4,-107 126.9,-104.8 126.2,-102.2 126.2,-99.8 				"/>
				<polygon class="st1" points="122.5,-121 125,-125 125.3,-128.3 126,-133 125.7,-139.8 120.5,-145.4 118.3,-147 120.8,-143.3 
					124.5,-140.5 124.8,-137.8 124,-132 124.3,-126 121,-122.3 				"/>
				<polygon class="st1" points="47.7,-81 53.8,-81.8 56,-84.7 59.2,-87.8 61.2,-89.2 61.7,-92.5 65.5,-95.2 67.4,-97.2 64.5,-96.2 
					60.8,-93.8 58.8,-89.8 57.2,-93.5 57.5,-89.5 54.5,-86.2 52.9,-83 				"/>
				<polygon class="st1" points="130.8,-89.8 129.2,-93.5 129.5,-89.5 126.5,-86.2 124.9,-83 119.7,-81 125.8,-81.8 128,-84.7 
					131.2,-87.8 				"/>
				<path class="st1" d="M53.2-134.4c0,0,3.8,0.6,4.4,0.5c0.7-0.1,3.1-0.8,3.1-0.8l3.3-2.8l2.3-3l5.6-2.6l-2.8,0l-3,1.1l-3.6,2.4
					l-1.4,2.6l-2.2,0.8L53.2-134.4z"/>
				<path class="st1" d="M98.1-96.3l-2.7,1.6c0,0-1.2,1.4-1.5,1.8c-0.3,0.4-0.8,1.5-1,2c-0.2,0.5-2.6,3.9-2.6,3.9s-2.6,1.7-3.5,2.4
					c-0.9,0.7-2.7,2.1-2.7,2.1l-1.6,2.4l-1.7,3.2l4.5-0.4l2.9,0.1l-6.6,1.3l-1.6,0.4l-2,0.9L75-72.9l-1.7,1.8l1.8,4l3.7,1l-2,0.2
					l-2-0.3l-3.5-3.7l-4.9-2.5l-0.9-1.5L64-74.7l-0.5-0.7l1.9,0.6l2.2,1.9c0,0,3.7,1.1,4.1,0.8c0.3-0.4,7.8-4.5,7.8-4.5l2.3-3.8
					l2.4-3.5l0.8-0.4l2.4-2.3l1.6-0.5l1-1.3l1.2-3.4l2.4-2.1C93.7-94,97-97.8,98.1-96.3z"/>
				<path class="st1" d="M122.7-147.8l-3.5,1l-9-0.2l-4.2-1.2l2.8-0.5l2.2-0.2c0,0,2,1.5,2.8,1s4.5,0,4.5,0l2.5-0.2l1.8-1.8h-2.8
					h-3.5l3.2-1h5.5L122.7-147.8z"/>
			</g>
			<path class="st1" d="M58.8-104.6l0.3-2.8l0.3-3.2l-0.9-1.9l-0.5-1.3l-0.4-2.1l-1.9-2.7l0.5,1.7l0.9,1.8l-1.1,2.5l1.4,1.6l0.7,2
				c0,0-0.2,2.2-0.1,2.4s0,2.2,0,2.2L58.8-104.6z"/>
			<path class="st1" d="M105.2-150.4l-2.2,0.9l-1.2,1.5l-1.1,1.1l-2.1,1.9c0,0-1.3-0.2-1.7-0.1c-0.3,0.1-3.1,0.9-3.1,0.9l2.8-0.2
				l1.8,0.4l1.4-0.7l1.8-1l0.8-1.8l1.6-1.8L105.2-150.4z"/>
			<polygon class="st1" points="79.4,-159.4 76.4,-156.6 75.8,-154 73.4,-151.4 71.5,-150.3 69.4,-149.8 66.2,-148.2 64.5,-147.8 
				63.5,-147.4 62.6,-144.2 61.2,-142.8 59.7,-139.3 60.5,-138.2 60.3,-139.4 61.5,-141.5 63.3,-143.2 66,-146.3 68.2,-148.2 
				71.2,-148.9 73.3,-150.5 76.2,-153.1 77.7,-156.7 			"/>
			<path class="st1" d="M71.7-144.3l2.5-2.4v-2c0,0,0.8-1,1.5-1.3s2.5-2.3,2.5-2.3l1.8-2.3l-0.8,2.3L77-150l-1.8,1.3v2.8L71.7-144.3
				z"/>
			<polygon class="st1" points="79.4,-87.4 76.4,-84.6 75.8,-82 73.4,-79.4 71.5,-78.3 69.4,-77.8 66.2,-76.2 64.5,-75.8 
				63.5,-75.4 62.6,-72.2 61.2,-70.8 59.7,-67.3 60.5,-66.2 60.3,-67.4 61.5,-69.5 63.3,-71.2 66,-74.3 68.2,-76.2 71.2,-76.9 
				73.3,-78.5 76.2,-81.1 77.7,-84.7 			"/>
			<path class="st1" d="M71.7-72.3l2.5-2.4v-2c0,0,0.8-1,1.5-1.3s2.5-2.3,2.5-2.3l1.8-2.3l-0.8,2.3L77-78l-1.8,1.3v2.8L71.7-72.3z"
				/>
		</g>
		<g>
			<g>
				<g>
					<path class="st2" d="M50.4-113.2l-12-3.2l-3.5,7.1l-7.3,3.5l-8.6-2l-6.3-3.1l-4.4-3.9l-3.5-15.8l8.7-8.6l3.5-11.5l-12.1-18
						l6.5,1.5L29.8-148c0,0-3.8,11.5-3.8,13.6c0,2.1,2.2,2.8,4.5,4.1c0.5,0.3,4.3-4.8,5-6c2.2-3.5,2.6-6.2,5.5-6.8
						c1.3-0.3,7.2,1.2,7,5c0,0,0,8.3,2,10.8c0.9,1.2,1.9,2.5,2.5,4c2,4.5,10,10.5,10,10.5l0.5,6L50.4-113.2z"/>
					<polygon class="st2" points="60.9,-91.8 52.9,-98.8 46.5,-105.3 40.1,-105.6 30.7,-103.5 26.4,-97.8 29.4,-88.8 39.9,-86.8 
						48.9,-76.8 59.4,-73.3 					"/>
					<polygon class="st2" points="60.9,-163.8 39.9,-158.8 48.9,-148.8 59.4,-145.3 					"/>
					<path class="st1" d="M56.8-154.3l-1.6,3.1l-0.8,2.8l-1.2,2.1l-1.4,1.8l-1.6,6.9c0,0,1.7,7.1,0,9.9c-1.7,2.8-3.4,7.5-4.3,9.7
						c-0.9,2.2-4.3,11.2-5.8,12.3c-1.5,1.1-13.6,6.3-18.5,11C16.6-89.9,4.5-73.7,0-72c3.2-3.9,17.9-21.8,19.8-23.3
						c1.9-1.5,11.6-10.8,16.6-12.5c5-1.7,5.2-6.9,7.5-11.2c2.4-4.3,5.8-13.4,5.8-18.3c0-5,1.7-10.5,1.7-10.5L56.8-154.3z"/>
					<path class="st1" d="M49.8-65.5c0-5,1.7-10.5,1.7-10.5l5.3-6.5l-1.6,3.1l-0.8,2.8l-1.2,2.1l-1.4,1.8l-1.6,6.9L49.8-65.5z"/>
					<path class="st1" d="M59.1-122.2c-0.8-1.5-2-6.3-2.3-7.9c-0.1-0.6-1.2-3.5-2.3-5.5c-0.5-0.9-2-1.9-2-2.4l-3.6-2.5l5.1,1.4
						c0.1,0.2,1.5,1.2,2.1,3.1c1.1,3.7,2.7,8.9,2.7,8.9L59.1-122.2z"/>
					<path class="st1" d="M57.5-104.3c-1.3,1.4-2.5,2.7-3.5,3.6c-1.8,1.5-3.4,3.2-8,6.2c-4.3,2.9-9.9,7-10.8,7.8
						c-1.8,1.5-11.5,1.2-11.5,1.2l-11,6.2c0,0,9-3.6,10-3.6s10-0.8,10-0.8l7.5-4.8l8.5-6c0,0,8-4.8,8.5-5.5L57.5-104.3z"/>
					<path class="st1" d="M57.3-93.9c-1.8,1.1-3.7,2.4-4,3c-0.5,1-6.5-1.5-9.5-1.8c4-1.5,4.5-0.2,6-0.5s4.7,0.8,6.2-2.2
						c0.3-0.5,0.6-1,0.9-1.5L57.3-93.9z"/>
					<path class="st1" d="M60.6-130.1c-3.5,1.3-7.8,2.7-8.4,3.3c0.7-0.2,7.2-1,8.3-1.5L60.6-130.1z"/>
					<path class="st1" d="M59.5-135.7l-6.3,3.5c0,0,4.1-1,5.8-2.2L59.5-135.7z"/>
					<polygon class="st1" points="62.3,-126 58.7,-124.2 54.2,-123 51,-122.3 47.3,-122.5 44.3,-123.3 41.9,-125.2 43.7,-122.3 
						48.5,-120.8 53.3,-119.5 60.5,-119.2 63.8,-120.8 63.2,-121.7 59.3,-119.7 55,-120.3 51.5,-121.3 54.7,-122 58.3,-122.5 
						62.2,-124 					"/>
					<path class="st1" d="M58-114l-3.3,0.5c0,0-2.3,1.7-3.5,1l2.8,1.2l0.8-0.7l3.7-1L58-114z"/>
					<path class="st1" d="M58.2-151.6l-2.6,3.9l-3.9,4.1c2.8-0.2,4.6-2.6,4.6-2.6l3.7-5.4L58.2-151.6z"/>
				</g>
				<polygon class="st1" points="58.8,-89.8 57.2,-93.5 57.5,-89.5 54.5,-86.2 52.9,-83 47.7,-81 53.8,-81.8 56,-84.7 59.2,-87.8 
									"/>
			</g>
		</g>
		<g>
			<g>
				<g>
					<polygon class="st2" points="125.1,-150.5 132.6,-144.5 145.4,-154.8 140.4,-164.3 132.9,-163.8 124.9,-170.8 					"/>
					<path class="st1" d="M151.4-198l-0.7,4.4l0.2,2.5l-0.1,1l-0.5,3.5l-3.1,4.4l-2.5,6.4l-3.3,7.7l-4.2,6.9l-4.2,4.6l-2.7,5.2
						l-2.6,3.9l-3.9,4.1c2.8-0.2,4.6-2.6,4.6-2.6l3.7-5.4l4.9-4.6l2.2-6.2l3.2-5.9l3-5.6l3.5-5.9l2.2-5.2l2-6.4l1.2-6.5l1.4-3.2
						L151.4-198z"/>
					<path class="st1" d="M121.3-212.6l5.1,1.4c0.1,0.2,1.5,1.2,2.1,3.1c0.4,1.5,1.2,2.4,1.6,3.9c0.1,0.5,0.9,0.7,1,1.2
						c0.5,1.7,0.1,3.8,0.1,3.8l2.3,9.5c0,0,0.3,1.2,0.6,2.6c0.3,1.6,0.6,3.4,0.4,4.4c-0.5,1.8-0.5,4.8,0.3,6.9c0.8,2,4,6.2,4,6.2
						l4.7,5.8c0,0,0.6,4.3,0.6,6.3c0,2,4.3,6.2,3.7,9.7c-0.7,3.5-1,2.9-0.8,4.2c0.2,1.3,0.7,3.7,0,4.5c-1.2-3.7-0.7-9-0.7-9
						s-3.8-7-3.6-9.5c0.2-2.5,0.3-4.8-1.5-6.5c-1.8-1.7-4.5-7.7-6-9c-1.5-1.3-2-3.3-2-7c0-3.7,0.5-4,0-5.8c-0.5-1.8-0.1-5.3-1.7-8.2
						c-0.7-1.2-1.5-4.4-2-6.5c-0.1-0.6-0.3-2-0.4-2.4c-0.1-0.6-1.1-2.5-2.3-4.6c-0.5-0.9-2-1.9-2-2.4L121.3-212.6z"/>
				</g>
			</g>
		</g>
		<g>
			<g>
				<g>
					<polygon class="st2" points="132.9,-163.8 124.9,-170.8 118.5,-177.3 112.1,-177.6 102.7,-175.5 98.4,-169.8 101.4,-160.8 
						111.9,-158.8 120.9,-148.8 131.4,-145.3 					"/>
					<polygon class="st2" points="53.1,-150.5 60.6,-144.5 73.4,-154.8 68.4,-164.3 60.9,-163.8 52.9,-170.8 					"/>
					<path class="st2" d="M91.6-143.4l3-3.5l0.6-4l-4.1-5.4l4.8-5.5l-1.6-8.2l-5.5-7.8l-9-2.5l-8-6l-1-12.5l-5.5,18.5
						c0,0,2.5,9.5,5,11c2.5,1.5,9,9.9,9,9.9l-9.5,8.1l3,10l8.5-5l5-4L91.6-143.4z"/>
					<path class="st1" d="M128.8-226.3l-1.6,3.1l-0.8,2.8l-1.2,2.1l-1.4,1.8l-1.6,6.9c0,0,1.7,7.1,0,9.9c-1.7,2.8-3.4,7.5-4.3,9.7
						c-0.9,2.2-4.3,11.2-5.8,12.3c-1.5,1.1-13.6,6.3-18.5,11c-5,4.7-17,20.9-21.5,22.6c3.2-3.9,17.9-21.8,19.8-23.3
						c1.9-1.5,11.6-10.8,16.6-12.5c5-1.7,5.2-6.9,7.5-11.2c2.4-4.3,5.8-13.4,5.8-18.3c0-5,1.7-10.5,1.7-10.5L128.8-226.3z"/>
					<path class="st1" d="M121.8-137.5c0-5,1.7-10.5,1.7-10.5l5.3-6.5l-1.6,3.1l-0.8,2.8l-1.2,2.1l-1.4,1.8l-1.6,6.9L121.8-137.5z"
						/>
					<path class="st1" d="M79.4-198l-0.7,4.4l0.2,2.5l-0.1,1l-0.5,3.5l-3.1,4.4l-2.5,6.4l-3.3,7.7l-4.2,6.9l-4.2,4.6l-2.7,5.2
						l-2.6,3.9l-3.9,4.1c2.8-0.2,4.6-2.6,4.6-2.6l3.7-5.4l4.9-4.6l2.2-6.2l3.2-5.9l3-5.6l3.5-5.9l2.2-5.2l2-6.4l1.2-6.5l1.4-3.2
						L79.4-198z"/>
					<path class="st1" d="M81.8-207.7c0.2-1.2,0.2-2.8,0.2-2.8l-2.2,1.5l-2,1.8l1.2,2.7l0.8,2.7l1.2,1l2.7,3.3l2.1,4.7l0.8,4.3
						c0,0,2.3,2.8,2.3,3.8s2.8,5,2.8,5l1.7,5.5c0,0,1.2,2,3.2,3.5s2.5,3.8,4.3,6c1.8,2.2,0.8,11,0.8,11s-1,3.2-0.8,4.5
						c0.2,1.3-0.5,8,0.7,9c-1.7-0.8-1.8-5.2-1.8-6.7s1.2-5.8,1.2-7.3s0.3-4.3,0.3-4.3l-0.7-4l-2.2-3l-2.8-4.3c0,0-4.2-5.3-4.2-6.2
						s-1.5-5.5-1.5-5.5l-1.4-1.9l-0.9-1.2l-1.4-1.8l-1-4.8c0,0-1.7-5.8-2.7-6l-2.5-3l-1.7-2.7l-1.3-2.7l-1.2-1.2l-2.8-0.7l1.2,1.3
						l1.6,1.8l-0.3,2l2,1.3l-2.8-0.3v-2.5l-3-3.3l-1.3,0.2l2.3,4l0.2,1.5l1.2,1.7l1,3l2.2,4.1l1.6,3.4l2.8,1.8l2.3,1.2
						c0,0,0.5,1.3,1,1.3l2.2,1.2l1.3,3.3v4.2l1.2,4.7c0,0,3.7,3.8,4.3,4.5c0.7,0.7,2.2,2.7,2.2,3.8c0,1.2,0.3,5.7,0.3,5.7
						s-0.3,2.5-0.5,3.3c-0.2,0.8-0.2,4.3-0.2,4.3l-1.5,3.8c0.5-2.3,0.8-5.3,0.8-5.3s0.2-5.3,0.2-6.2c0-0.4-0.1-2.3-0.3-4
						c-0.1-1.5-0.3-2.9-0.6-3.2c-0.5-0.7-3-4.2-4.2-5c-1.2-0.8-3-6.7-3-8.2s-1-5-2.3-5.3c-1.3-0.3-2-3.1-6.9-3.5l-1.2-4.7l-1.6-2.5
						L73-200l-1.3-2l-1-2.2l-1.3-1l-1.7,0.2v1.3l-0.2,3.3l-0.3,1.5l3.4,4.7l2.7,3.7l-0.2,1.8l1.5,3l2.5,0.7l2.7,2.5l1.8,2.5l2.2,4.7
						l1.3,3.5c0,0,2,2,2,4.3s2,1.5,2.8,2.7c0.8,1.2,3.3,2,3.3,2l0.3,2.5l-1,3.5c0,0-1.2,0.7-1.2,2.7s-2.3,5.2-2.3,5.2s0.3,2.2,0.5,4
						c0.2,1.8,0.2,5.7,0.2,5.7c-1.7-1-1.2-6.5-1.2-6.5s-0.5-4.2,0.3-5c0.8-0.8,1.7-3.5,2.2-5.5s2.8-3.2,0.3-5
						c-2.5-1.8-6.2-5.7-6.5-8c-0.3-2.3-3-8.2-4.3-9.7s-1.8-4-3.3-4.3c-1.5-0.3-2.6-1.2-2.6-1.2l-2.5-3.2l-1.1-2.9L69-194l-2.8-2.8
						l0.2-4.5v-1.8l0.5-1.5l1.4-1.6l-1.9-6.9l3,5.8l5.8-1.7l5.5-2.8h5.7l-1.2,3.5l1.1,7.2l0.2,3.8L88-194c0,0,1.7,3.3,2.7,4
						s2.2,1,2.3,3c0.2,2,1.5,6.7,2,7s2,3,2,3c-1.7-0.2-2.5-1.2-2.7-1.8s-1.7-4.3-1.8-5.5c-0.2-1.2-1.3-3.8-2.5-4.5
						c-1.2-0.7-2.5-3.2-2.8-4c-0.3-0.8,0-3.5-1.3-3.3l-0.3-4.2l-1.2-4.8l0.2-2.8l0.7-3.5l-1.8,0.3l-0.5,1.3v4.5L81.8-207.7z"/>
					<path class="st1" d="M57.7-212.2c0.2-0.7-0.3-1.2-0.1-1.9c0.2-0.6,1-0.8,1.2-1.3c0.3-0.9,0.1-2.2,0.1-2
						c0.2-1.2,0.6-2.6,0.9-3.2c0.3-0.7,1.2-2.2,1.2-2.2l2.7-1.8l-1.8,3.5c0,0-1,5.2-1,5.7c0,0.5,0.2,8.4,0.2,8.4l1.5,6.9l-0.6,5
						l2.6,3.1c0,0,1.7,5.8,1.7,6.3c0,0.5,2.7,4,2.7,4l3.8,4.5l2.3,3.3c0,0,0.3,2.7,0.7,5.3c0.3,2.7,1.2,3.8,2.3,6.2
						c1.2,2.3,6,6.5,6,6.5l1.5,4l-0.7,7c-1-2.2-1-7.8-1-7.8s-2.2-4.2-3.2-4.8c-1-0.7-3-1.8-3.5-3.2c-0.5-1.3-2.2-6.5-2.2-6.5l-1-6.3
						c0,0-1.3-3.4-3.9-4.5c-2.5-1.2-3.2-2-4-4.5c-0.8-2.5-2.5-5.6-2.5-5.6l-2.6-6.9l0.4-3.9c0,0-2.5-8.5-2-11.5c0.5-3,0.7-7,0.7-7
						s-0.3,1.6-0.9,3.3c-0.2,0.6-0.4,1.3-0.7,1.8c-1,2.1-2.4,3.6-2.6,4C56-208.4,57.1-210.2,57.7-212.2z"/>
					<path class="st1" d="M49.3-212.6l5.1,1.4c0.1,0.2,1.5,1.2,2.1,3.1c0.4,1.5,1.2,2.4,1.6,3.9c0.1,0.5,0.9,0.7,1,1.2
						c0.5,1.7,0.1,3.8,0.1,3.8l2.3,9.5c0,0,0.3,1.2,0.6,2.6c0.3,1.6,0.6,3.4,0.4,4.4c-0.5,1.8-0.5,4.8,0.3,6.9c0.8,2,4,6.2,4,6.2
						l4.7,5.8c0,0,0.6,4.3,0.6,6.3c0,2,4.3,6.2,3.7,9.7c-0.7,3.5-1,2.9-0.8,4.2c0.2,1.3,0.7,3.7,0,4.5c-1.2-3.7-0.7-9-0.7-9
						s-3.8-7-3.6-9.5c0.2-2.5,0.3-4.8-1.5-6.5c-1.8-1.7-4.5-7.7-6-9c-1.5-1.3-2-3.3-2-7c0-3.7,0.5-4,0-5.8c-0.5-1.8-0.1-5.3-1.7-8.2
						c-0.7-1.2-1.5-4.4-2-6.5c-0.1-0.6-0.3-2-0.4-2.4c-0.1-0.6-1.1-2.5-2.3-4.6c-0.5-0.9-2-1.9-2-2.4L49.3-212.6z"/>
					<path class="st1" d="M58.6-148.2c0.3-0.7,2.5-2.7,2.5-2.7l2.7-1.8l-1.8,3.5L58.6-148.2z"/>
					<path class="st1" d="M109.9-137.1c0.2-2.1-3.3-3,5.2-13.3c0.2-0.2,0.4-0.5,0.6-0.7l6.2-7.7l-4.1,8.5l-1.7,1.5l-1.9,2.2
						c0,0-1.1,0.8-1.6,9.9L109.9-137.1z"/>
					<path class="st1" d="M99.2-139.4c2.6-1.3,5.6-6,5.6-6.9c0-0.5,0.1-2.8,0.2-4.4c0.1-1,0.1-1.7,0.1-1.7l6.2-16.3l-3.4,18.2
						l-0.7,4l-1.7,3.9L99.2-139.4z"/>
					<path class="st1" d="M107.5-176.7l3,4.7l2,3.5l-0.2,4.2l-0.7,2.7l-0.8,0.7l2.2,2.5l1.5,3.3l1.9,3.9l-0.7,0.1l-3.6-4.1l-1.3-4.6
						l-0.7-1.3l1.5-1.8l-0.4-5.7l-1.9-4.2l-2.8-3.8l-1.3-4.2c0,0-1.2-4-1.3-4.5s-1.5-1.8-1.5-1.8c2.3,0.3,2.2,1.7,2.2,1.7l2,4.5
						L107.5-176.7z"/>
				</g>
				<path class="st1" d="M98.1-168.3l-2.7,1.6c0,0-1.2,1.4-1.5,1.8c-0.3,0.4-0.8,1.5-1,2c-0.2,0.5-2.6,3.9-2.6,3.9s-2.6,1.7-3.5,2.4
					c-0.9,0.7-2.7,2.1-2.7,2.1l-1.6,2.4l-1.7,3.2l4.5-0.4l2.9,0.1l-6.6,1.3l-1.6,0.4l-2,0.9l-2.9,1.6l-1.7,1.8l1.8,4l3.7,1l-2,0.2
					l-2-0.3l-3.5-3.7l-4.9-2.5l-0.9-1.5l-1.3-0.8l-0.5-0.7l1.9,0.6l2.2,1.9c0,0,3.7,1.1,4.1,0.8c0.3-0.4,7.8-4.5,7.8-4.5l2.3-3.8
					l2.4-3.5l0.8-0.4l2.4-2.3l1.6-0.5l1-1.3l1.2-3.4l2.4-2.1C93.7-166,97-169.8,98.1-168.3z"/>
			</g>
			<polygon class="st1" points="79.4,-159.4 76.4,-156.6 75.8,-154 73.4,-151.4 71.5,-150.3 69.4,-149.8 66.2,-148.2 64.5,-147.8 
				63.5,-147.4 62.6,-144.2 61.2,-142.8 59.7,-139.3 60.5,-138.2 60.3,-139.4 61.5,-141.5 63.3,-143.2 66,-146.3 68.2,-148.2 
				71.2,-148.9 73.3,-150.5 76.2,-153.1 77.7,-156.7 			"/>
			<path class="st1" d="M71.7-144.3l2.5-2.4v-2c0,0,0.8-1,1.5-1.3s2.5-2.3,2.5-2.3l1.8-2.3l-0.8,2.3L77-150l-1.8,1.3v2.8L71.7-144.3
				z"/>
		</g>
		<g>
			<g>
				<g>
					<polygon class="st2" points="60.9,-163.8 52.9,-170.8 46.5,-177.3 40.1,-177.6 30.7,-175.5 26.4,-169.8 29.4,-160.8 
						39.9,-158.8 48.9,-148.8 59.4,-145.3 					"/>
					<path class="st1" d="M56.8-226.3l-1.6,3.1l-0.8,2.8l-1.2,2.1l-1.4,1.8l-1.6,6.9c0,0,1.7,7.1,0,9.9c-1.7,2.8-3.4,7.5-4.3,9.7
						c-0.9,2.2-4.3,11.2-5.8,12.3c-1.5,1.1-13.6,6.3-18.5,11c-5,4.7-17,20.9-21.5,22.6c3.2-3.9,17.9-21.8,19.8-23.3
						c1.9-1.5,11.6-10.8,16.6-12.5c5-1.7,5.2-6.9,7.5-11.2c2.4-4.3,5.8-13.4,5.8-18.3c0-5,1.7-10.5,1.7-10.5L56.8-226.3z"/>
					<path class="st1" d="M49.8-137.5c0-5,1.7-10.5,1.7-10.5l5.3-6.5l-1.6,3.1l-0.8,2.8l-1.2,2.1l-1.4,1.8l-1.6,6.9L49.8-137.5z"/>
				</g>
			</g>
		</g>
	</g>
</pattern>
<sodipodi:namedview  bordercolor="#666666" borderopacity="1.0" id="base" inkscape:current-layer="layer1" inkscape:cx="1.3500804" inkscape:cy="41.868404" inkscape:document-rotation="0" inkscape:document-units="px" inkscape:pageopacity="0.0" inkscape:pageshadow="2" inkscape:snap-global="true" inkscape:snap-nodes="false" inkscape:snap-object-midpoints="true" inkscape:snap-page="true" inkscape:window-height="986" inkscape:window-maximized="1" inkscape:window-width="1920" inkscape:window-x="-11" inkscape:window-y="-11" inkscape:zoom="3.0039735" pagecolor="#ffffff" showgrid="true" units="px">
	<inkscape:grid  id="grid847" type="xygrid"></inkscape:grid>
</sodipodi:namedview>
<g id="layer1" inkscape:groupmode="layer" inkscape:label="Layer 1">
	<path id="path853" class="st4" d="M36.2,26.1c-6.9,1.5-9.2,5.2-10.1,10.1v27.6c2.4,8.2,6.3,8.9,10.1,10.1h27.6
		c6-1.2,8.5-5.3,10.1-10.1V36.2c-1.4-6.7-5.3-9.1-10.1-10.1H36.2z M65.8,30.4c2.1,0,3.9,1.7,3.9,3.9c0,0,0,0,0,0
		c0,2.1-1.7,3.9-3.9,3.9c0,0,0,0,0,0c-2.1,0-3.9-1.7-3.9-3.9c0,0,0,0,0,0C62,32.1,63.7,30.4,65.8,30.4z M50.1,34.4
		c8.6,0,15.6,7,15.6,15.6c0,0,0,0,0,0c0,8.6-7,15.6-15.6,15.6c-8.6,0-15.6-7-15.6-15.6C34.5,41.4,41.5,34.4,50.1,34.4z"/>
	<path id="path849" class="st4" d="M26.4,9.2C14.6,11.8,10.7,18,9.2,26.4v47.2c4.2,14,10.8,15.1,17.2,17.2h47.2
		c10.3-2.1,14.5-9,17.2-17.2V26.4c-2.4-11.5-9-15.6-17.2-17.2H26.4z M33.3,21.1h33.5c5.8,1.1,10.5,4,12.2,12.2v33.5
		c-1.9,5.8-4.9,10.7-12.2,12.2H33.3c-4.6-1.4-9.2-2.3-12.2-12.2V33.3C22.1,27.3,24.9,22.9,33.3,21.1z"/>
	<circle id="path855" class="st4" cx="50.1" cy="49.9" r="9.9"/>
	
		<image style="overflow:visible;enable-background:new    ;" width="800" height="800" id="image844" xlink:href="291C4D6BD2C610EF.png"  transform="matrix(8.307701e-02 0 0 8.307701e-02 120 -60)">
	</image>
</g>
</svg>
